<svg version="1.1" id="Layer_1" xmlns="http://www.w3.org/2000/svg" xmlns:xlink="http://www.w3.org/1999/xlink" x="0px" y="0px"
	 width="100%" viewBox="0 0 512 512" enable-background="new 0 0 512 512" xml:space="preserve">
<path fill="#FFFFFF" opacity="1.000000" stroke="none" 
	d="
M135.000000,513.000000 
	C90.358398,513.000000 45.716793,513.000000 1.037595,513.000000 
	C1.037595,342.454163 1.037595,171.908325 1.037595,1.000000 
	C45.353569,1.000000 89.708130,1.000000 134.413849,1.369788 
	C119.956940,4.882865 108.223862,17.126621 108.191933,32.218246 
	C107.875069,181.997849 107.942558,331.778442 108.135490,481.558472 
	C108.147720,491.051880 112.498077,499.418610 120.538544,505.008484 
	C125.036827,508.135803 130.158966,510.365723 135.000000,513.000000 
z"/>
<path fill="#FFFFFF" opacity="1.000000" stroke="none" 
	d="
M379.000000,0.999997 
	C423.641602,1.000000 468.283203,1.000000 512.962402,1.000000 
	C512.962402,171.545868 512.962402,342.091766 512.962402,513.000000 
	C468.646423,513.000000 424.291870,513.000000 379.586121,512.630249 
	C394.043030,509.117126 405.776123,496.873474 405.808075,481.781921 
	C406.124939,332.002258 406.057434,182.221573 405.864502,32.441486 
	C405.852295,22.948105 401.501892,14.581401 393.461456,8.991526 
	C388.963165,5.864220 383.841034,3.634276 379.000000,0.999997 
z"/>
<path fill="#000000" opacity="1.000000" stroke="none" 
	d="
M378.531342,0.999997 
	C383.841034,3.634276 388.963165,5.864220 393.461456,8.991526 
	C401.501892,14.581401 405.852295,22.948105 405.864502,32.441486 
	C406.057434,182.221573 406.124939,332.002258 405.808075,481.781921 
	C405.776123,496.873474 394.043030,509.117126 379.117493,512.630249 
	C297.979095,513.000000 216.958206,513.000000 135.468658,513.000000 
	C130.158966,510.365723 125.036827,508.135803 120.538544,505.008484 
	C112.498077,499.418610 108.147720,491.051880 108.135490,481.558472 
	C107.942558,331.778442 107.875069,181.997849 108.191933,32.218246 
	C108.223862,17.126621 119.956940,4.882865 134.882507,1.369788 
	C216.020889,1.000000 297.041779,1.000000 378.531342,0.999997 
M381.000000,187.500000 
	C381.000000,143.738937 381.000000,99.977859 381.000000,56.288124 
	C298.022430,56.288124 215.619431,56.288124 133.287140,56.288124 
	C133.287140,187.311401 133.287140,318.046326 133.287140,448.711853 
	C215.977585,448.711853 298.380585,448.711853 381.000000,448.711853 
	C381.000000,361.782623 381.000000,275.141296 381.000000,187.500000 
M253.998459,494.981079 
	C255.493484,494.987274 257.002228,495.128265 258.481262,494.977570 
	C267.527222,494.055817 274.793304,485.709229 273.847198,477.439148 
	C272.696350,467.379547 264.517120,460.629089 254.199402,462.028229 
	C246.958160,463.010162 238.402283,471.821716 240.611099,481.353790 
	C242.285767,488.580597 246.903931,492.242493 253.998459,494.981079 
M232.519104,26.000000 
	C228.854584,26.002537 225.114304,25.572720 221.558472,26.195654 
	C219.859451,26.493296 218.510406,28.788698 217.002853,30.179243 
	C218.591339,31.452765 220.168732,33.819336 221.769989,33.835617 
	C245.253937,34.074337 268.741821,34.074322 292.225769,33.835796 
	C293.828430,33.819515 295.407257,31.455587 296.997162,30.183460 
	C295.656616,28.801186 294.496552,27.127052 292.908539,26.144979 
	C291.939850,25.545948 290.312347,26.001743 288.980774,26.001575 
	C270.491486,25.999243 252.002213,26.000000 232.519104,26.000000 
z"/>
<path fill="#FFFFFF" opacity="1.000000" stroke="none" 
	d="
M381.000000,188.000000 
	C381.000000,275.141296 381.000000,361.782623 381.000000,448.711853 
	C298.380585,448.711853 215.977585,448.711853 133.287140,448.711853 
	C133.287140,318.046326 133.287140,187.311401 133.287140,56.288124 
	C215.619431,56.288124 298.022430,56.288124 381.000000,56.288124 
	C381.000000,99.977859 381.000000,143.738937 381.000000,188.000000 
z"/>
<path fill="#FFFFFF" opacity="1.000000" stroke="none" 
	d="
M253.595428,494.851227 
	C246.903931,492.242493 242.285767,488.580597 240.611099,481.353790 
	C238.402283,471.821716 246.958160,463.010162 254.199402,462.028229 
	C264.517120,460.629089 272.696350,467.379547 273.847198,477.439148 
	C274.793304,485.709229 267.527222,494.055817 258.481262,494.977570 
	C257.002228,495.128265 255.493484,494.987274 253.595428,494.851227 
z"/>
<path fill="#FFFFFF" opacity="1.000000" stroke="none" 
	d="
M233.016022,26.000000 
	C252.002213,26.000000 270.491486,25.999243 288.980774,26.001575 
	C290.312347,26.001743 291.939850,25.545948 292.908539,26.144979 
	C294.496552,27.127052 295.656616,28.801186 296.997162,30.183468 
	C295.407257,31.455587 293.828430,33.819515 292.225769,33.835796 
	C268.741821,34.074322 245.253937,34.074337 221.769989,33.835617 
	C220.168732,33.819336 218.591339,31.452765 217.002853,30.179243 
	C218.510406,28.788698 219.859451,26.493296 221.558472,26.195654 
	C225.114304,25.572720 228.854584,26.002537 233.016022,26.000000 
z"/>
</svg>